<svg id="svg" version="1.1" xmlns="http://www.w3.org/2000/svg" xmlns:xlink="http://www.w3.org/1999/xlink" width="400" height="400" viewBox="0, 0, 400,400"><g id="svgg"><path id="path0" d="M74.000 48.716 C 74.000 49.110,73.695 49.235,73.037 49.109 C 72.336 48.975,72.131 49.075,72.284 49.476 C 72.458 49.928,72.311 49.942,71.460 49.555 C 70.891 49.295,70.519 48.931,70.633 48.746 C 70.748 48.561,70.529 48.529,70.147 48.676 C 69.528 48.913,69.547 48.985,70.326 49.332 C 70.807 49.547,71.200 49.875,71.200 50.061 C 71.200 50.511,70.913 50.488,69.925 49.960 C 69.266 49.607,69.165 49.627,69.414 50.060 C 70.265 51.539,70.492 51.640,71.326 50.910 C 71.808 50.488,72.002 50.430,71.803 50.768 C 71.548 51.202,71.640 51.270,72.191 51.059 C 72.810 50.821,72.839 50.871,72.392 51.410 C 72.019 51.859,71.789 51.906,71.585 51.576 C 71.379 51.242,71.224 51.237,71.026 51.557 C 70.876 51.801,70.313 52.000,69.776 52.000 C 69.206 52.000,68.800 52.233,68.800 52.560 C 68.800 52.984,68.369 53.076,67.038 52.937 C 65.110 52.736,64.893 52.906,64.142 55.200 C 63.862 56.057,63.668 56.298,63.642 55.822 C 63.608 55.191,63.409 55.304,62.584 56.422 C 62.025 57.180,61.395 57.823,61.184 57.850 C 60.973 57.877,60.628 57.923,60.418 57.950 C 60.208 57.977,59.578 58.458,59.018 59.018 C 58.458 59.578,57.977 60.208,57.950 60.418 C 57.923 60.628,57.877 60.973,57.850 61.184 C 57.823 61.395,57.180 62.025,56.422 62.584 C 55.304 63.409,55.191 63.608,55.822 63.642 C 56.298 63.668,56.057 63.862,55.200 64.142 C 52.906 64.893,52.736 65.110,52.937 67.038 C 53.059 68.204,52.965 68.802,52.660 68.806 C 52.329 68.811,52.334 68.898,52.679 69.117 C 53.002 69.322,53.032 69.612,52.771 70.011 C 52.441 70.514,52.299 70.487,51.792 69.824 C 51.295 69.172,51.200 69.152,51.200 69.700 C 51.200 70.059,51.380 70.464,51.600 70.600 C 51.820 70.736,51.986 71.062,51.968 71.324 C 51.946 71.667,51.881 71.661,51.735 71.300 C 51.624 71.025,51.358 70.800,51.143 70.800 C 50.928 70.800,50.888 71.025,51.053 71.300 C 51.260 71.644,51.144 71.630,50.681 71.255 C 50.311 70.955,50.125 70.522,50.266 70.293 C 50.412 70.057,50.331 69.995,50.079 70.151 C 49.835 70.302,49.748 70.719,49.885 71.078 C 50.052 71.513,49.980 71.635,49.671 71.444 C 49.415 71.286,48.890 71.341,48.503 71.566 C 47.835 71.955,47.835 71.976,48.500 71.988 C 48.885 71.995,49.200 72.199,49.200 72.443 C 49.200 72.686,48.930 72.782,48.600 72.655 C 47.844 72.365,47.832 72.689,48.571 73.429 C 49.226 74.083,49.768 74.196,49.400 73.600 C 49.264 73.380,49.343 73.200,49.576 73.200 C 50.167 73.200,50.108 73.984,49.500 74.217 C 49.225 74.323,48.972 74.897,48.937 75.492 C 48.902 76.088,48.696 76.635,48.479 76.707 C 47.983 76.872,48.353 78.400,48.889 78.400 C 49.107 78.400,49.178 78.121,49.047 77.779 C 48.907 77.414,48.977 77.262,49.215 77.409 C 50.035 77.916,49.029 80.168,48.200 79.681 C 47.980 79.552,48.033 79.733,48.317 80.084 C 48.739 80.606,48.739 80.760,48.317 80.930 C 48.033 81.044,48.226 81.151,48.747 81.168 C 49.528 81.194,49.651 81.357,49.452 82.100 C 49.319 82.595,49.208 83.596,49.205 84.324 C 49.202 85.052,49.032 85.544,48.828 85.417 C 48.623 85.291,48.342 85.370,48.204 85.593 C 47.980 85.955,48.489 86.171,49.286 86.052 C 49.840 85.969,49.129 87.142,48.469 87.398 C 47.864 87.632,47.874 87.712,48.576 88.229 C 49.345 88.794,49.345 88.800,48.576 88.832 C 48.149 88.849,48.015 88.951,48.278 89.057 C 48.540 89.164,48.663 89.492,48.550 89.785 C 48.438 90.079,48.538 90.438,48.773 90.583 C 49.400 90.971,49.293 91.600,48.600 91.600 C 48.270 91.600,48.000 91.780,48.000 92.000 C 48.000 92.220,48.270 92.400,48.600 92.400 C 49.147 92.400,49.356 92.960,49.308 94.296 C 49.298 94.568,49.438 94.700,49.618 94.589 C 49.797 94.478,50.075 94.598,50.234 94.855 C 50.415 95.148,50.350 95.216,50.062 95.038 C 49.808 94.881,49.600 94.965,49.600 95.225 C 49.600 95.578,49.447 95.571,49.000 95.200 C 48.585 94.856,48.400 94.841,48.400 95.151 C 48.400 95.398,48.580 95.623,48.800 95.650 C 49.020 95.678,49.425 95.734,49.700 95.775 C 49.975 95.816,50.395 95.706,50.633 95.531 C 50.871 95.357,51.411 95.472,51.833 95.787 C 52.559 96.329,52.546 96.348,51.600 96.130 C 50.711 95.926,50.673 95.961,51.254 96.450 C 51.614 96.753,52.004 97.270,52.122 97.600 C 52.291 98.073,52.344 98.051,52.368 97.500 C 52.427 96.205,53.097 96.785,53.070 98.108 C 53.055 98.827,53.163 99.727,53.309 100.108 C 53.457 100.494,53.389 100.800,53.154 100.800 C 52.521 100.800,52.978 101.790,53.633 101.837 C 55.208 101.951,55.758 102.081,55.358 102.246 C 54.800 102.476,55.137 104.384,55.747 104.447 C 55.996 104.473,56.460 104.457,56.778 104.412 C 57.246 104.345,57.262 104.443,56.864 104.923 C 56.593 105.250,56.062 105.472,55.685 105.416 C 55.308 105.360,55.227 105.393,55.505 105.488 C 55.783 105.583,55.883 105.872,55.728 106.130 C 55.534 106.454,55.638 106.445,56.060 106.103 C 56.774 105.525,57.200 105.819,57.200 106.890 C 57.200 107.307,57.383 107.534,57.607 107.396 C 57.830 107.258,57.917 106.990,57.800 106.800 C 57.683 106.610,57.798 106.325,58.055 106.166 C 58.369 105.972,58.416 106.051,58.196 106.406 C 57.958 106.791,58.051 106.866,58.534 106.681 C 58.900 106.540,59.200 106.599,59.200 106.813 C 59.200 107.026,59.020 107.200,58.800 107.200 C 58.580 107.200,58.400 107.481,58.400 107.824 C 58.400 108.167,58.250 108.355,58.067 108.241 C 57.883 108.128,57.733 108.267,57.733 108.551 C 57.733 108.835,57.965 109.067,58.249 109.067 C 58.533 109.067,58.685 108.937,58.587 108.779 C 58.489 108.620,58.688 108.259,59.030 107.975 C 59.572 107.526,59.616 107.596,59.382 108.530 C 59.195 109.272,59.270 109.600,59.625 109.600 C 59.907 109.600,60.497 109.915,60.937 110.300 C 61.377 110.685,61.606 110.775,61.445 110.500 C 61.280 110.218,61.358 110.000,61.623 110.000 C 61.893 110.000,62.006 110.334,61.888 110.785 C 61.677 111.591,62.465 112.601,62.937 112.130 C 63.082 111.985,63.200 112.077,63.200 112.333 C 63.200 112.590,63.409 112.755,63.665 112.700 C 63.920 112.645,64.262 113.050,64.425 113.600 C 64.629 114.290,64.733 114.376,64.760 113.876 C 64.782 113.478,64.980 113.264,65.200 113.400 C 65.420 113.536,65.600 113.472,65.600 113.257 C 65.600 113.042,65.380 112.793,65.110 112.703 C 64.841 112.614,65.021 112.436,65.510 112.308 C 66.000 112.180,66.400 112.249,66.400 112.461 C 66.400 112.673,66.608 112.719,66.862 112.562 C 67.150 112.384,67.215 112.452,67.034 112.745 C 66.875 113.002,66.577 113.109,66.372 112.983 C 66.168 112.856,66.000 112.943,66.000 113.176 C 66.000 113.823,67.115 113.681,67.504 112.985 C 67.791 112.472,67.937 112.536,68.381 113.364 C 68.673 113.910,69.167 114.455,69.477 114.574 C 69.848 114.717,69.940 114.621,69.744 114.295 C 69.547 113.967,69.675 113.985,70.123 114.349 C 70.722 114.835,70.803 114.789,70.828 113.949 C 70.854 113.066,70.879 113.055,71.187 113.800 C 71.419 114.359,71.327 114.751,70.883 115.100 C 70.459 115.434,70.415 115.600,70.752 115.600 C 71.261 115.600,72.400 116.548,72.400 116.971 C 72.400 117.434,71.391 116.981,71.128 116.400 C 70.953 116.013,70.846 116.207,70.828 116.949 C 70.804 117.923,70.891 118.023,71.396 117.603 C 71.889 117.194,72.057 117.272,72.371 118.054 C 72.626 118.692,72.758 118.783,72.775 118.333 C 72.811 117.380,73.672 117.197,74.569 117.952 C 75.189 118.475,75.272 118.484,75.000 118.000 C 74.766 117.584,74.914 117.620,75.482 118.117 C 76.249 118.789,76.318 118.791,76.564 118.150 C 76.764 117.629,76.937 117.577,77.293 117.933 C 77.913 118.553,78.513 118.531,78.194 117.900 C 78.055 117.625,78.179 117.686,78.470 118.035 C 79.011 118.684,80.187 118.626,79.782 117.970 C 79.659 117.772,79.838 117.716,80.179 117.847 C 80.521 117.978,80.813 118.291,80.828 118.543 C 80.844 118.794,81.011 118.640,81.200 118.200 C 81.389 117.760,81.556 117.625,81.572 117.900 C 81.611 118.602,82.800 118.528,82.800 117.824 C 82.800 117.507,82.978 117.137,83.195 117.003 C 83.422 116.863,83.489 117.023,83.353 117.379 C 83.222 117.721,83.269 118.000,83.457 118.000 C 275.119 118.233,318.397 118.169,318.198 117.650 C 318.044 117.248,318.273 117.287,319.042 117.791 C 319.745 118.251,319.995 118.302,319.791 117.941 C 319.544 117.508,319.589 117.498,320.016 117.895 C 320.442 118.290,320.708 118.250,321.343 117.695 C 321.780 117.313,322.028 117.189,321.895 117.420 C 321.761 117.651,322.045 118.085,322.526 118.384 C 323.323 118.881,323.352 118.870,322.851 118.264 C 322.549 117.899,322.482 117.600,322.702 117.600 C 322.922 117.600,323.336 117.881,323.621 118.225 C 324.090 118.790,324.176 118.785,324.517 118.177 C 324.828 117.621,324.961 117.599,325.281 118.052 C 325.568 118.457,325.620 118.371,325.479 117.726 C 325.300 116.904,326.209 116.075,326.724 116.591 C 326.839 116.706,326.723 116.800,326.467 116.800 C 326.210 116.800,326.000 116.991,326.000 117.224 C 326.000 117.457,326.184 117.533,326.410 117.394 C 326.635 117.255,326.794 117.289,326.763 117.470 C 326.627 118.250,326.827 118.830,327.160 118.625 C 327.358 118.502,327.484 117.872,327.439 117.225 C 327.381 116.388,327.680 115.744,328.479 114.990 C 329.324 114.193,329.600 114.088,329.600 114.566 C 329.600 114.915,329.780 115.200,330.000 115.200 C 330.220 115.200,330.400 114.909,330.400 114.553 C 330.400 114.109,330.644 113.971,331.181 114.111 C 331.611 114.223,332.286 114.070,332.681 113.770 C 333.503 113.148,334.154 113.027,333.826 113.558 C 333.560 113.989,334.401 114.352,335.100 114.108 C 335.375 114.012,335.600 113.749,335.600 113.524 C 335.600 113.299,335.332 113.217,335.005 113.343 C 334.661 113.475,334.450 113.366,334.505 113.086 C 334.557 112.819,334.362 112.649,334.070 112.710 C 333.779 112.770,333.653 112.637,333.791 112.414 C 334.094 111.925,335.997 113.069,336.006 113.746 C 336.009 113.996,336.179 113.936,336.383 113.613 C 336.619 113.240,336.596 112.837,336.320 112.504 C 336.081 112.216,336.002 111.865,336.143 111.724 C 336.284 111.582,336.400 111.707,336.400 112.000 C 336.400 112.293,336.517 112.416,336.660 112.273 C 336.804 112.130,337.183 112.325,337.503 112.706 C 337.823 113.088,337.770 112.861,337.385 112.200 C 337.000 111.540,336.822 111.126,336.990 111.281 C 337.332 111.596,338.400 110.673,338.400 110.063 C 338.400 109.846,339.306 108.947,340.413 108.065 C 341.520 107.184,342.240 106.348,342.013 106.208 C 341.786 106.068,341.603 105.738,341.606 105.476 C 341.610 105.190,341.767 105.239,342.000 105.600 C 342.213 105.930,342.393 106.020,342.400 105.800 C 342.407 105.580,342.582 105.668,342.788 105.995 C 343.089 106.471,343.168 106.411,343.182 105.695 C 343.192 105.203,343.208 104.397,343.218 103.905 C 343.231 103.258,343.328 103.160,343.569 103.550 C 343.842 103.991,343.935 103.994,344.078 103.565 C 344.202 103.194,344.332 103.246,344.522 103.741 C 344.672 104.131,344.628 104.341,344.423 104.214 C 344.221 104.089,343.948 104.160,343.817 104.373 C 343.683 104.589,343.944 104.688,344.409 104.598 C 344.885 104.507,345.335 104.685,345.462 105.017 C 345.584 105.335,345.856 105.489,346.066 105.359 C 346.276 105.229,346.122 104.856,345.724 104.529 C 345.034 103.963,345.038 103.946,345.800 104.168 C 346.545 104.386,346.552 104.364,345.900 103.857 C 344.958 103.123,345.009 102.670,345.976 103.187 C 346.501 103.468,346.833 103.471,347.003 103.195 C 347.142 102.970,347.451 102.908,347.689 103.055 C 347.951 103.217,348.008 103.137,347.834 102.855 C 347.675 102.598,347.358 102.502,347.130 102.644 C 346.861 102.810,346.815 102.583,347.000 102.000 C 347.186 101.414,347.096 100.980,346.743 100.756 C 346.348 100.506,346.449 100.411,347.114 100.406 C 347.893 100.401,347.967 100.286,347.614 99.626 C 347.132 98.725,347.066 97.579,347.500 97.647 C 348.290 97.772,348.540 97.549,348.000 97.200 C 347.600 96.942,347.567 96.810,347.900 96.806 C 348.175 96.803,348.400 96.609,348.400 96.376 C 348.400 96.143,348.192 96.081,347.938 96.238 C 347.652 96.415,347.585 96.348,347.762 96.062 C 348.135 95.458,348.215 95.473,349.049 96.300 C 349.722 96.967,349.743 96.967,349.490 96.300 C 349.221 95.589,349.458 95.471,351.000 95.547 L 351.800 95.587 351.000 95.222 C 350.255 94.881,350.269 94.852,351.200 94.788 L 352.200 94.720 351.200 94.436 C 350.519 94.243,350.059 94.340,349.758 94.741 C 349.515 95.065,349.042 95.225,348.707 95.096 C 348.372 94.968,347.859 95.073,347.568 95.331 C 347.129 95.720,347.129 95.681,347.565 95.104 C 347.854 94.722,348.264 94.516,348.475 94.646 C 348.686 94.777,349.325 94.460,349.894 93.942 C 350.463 93.424,350.799 93.225,350.641 93.500 C 350.466 93.803,350.582 94.000,350.934 94.000 C 351.253 94.000,351.611 93.749,351.729 93.442 C 351.887 93.030,351.624 92.906,350.729 92.968 C 349.717 93.038,349.621 92.974,350.151 92.586 C 350.501 92.330,350.655 91.965,350.494 91.774 C 350.332 91.583,350.544 91.690,350.965 92.013 C 351.693 92.571,351.705 92.552,351.210 91.623 C 350.628 90.531,350.330 88.309,350.804 88.603 C 350.972 88.706,351.332 88.523,351.604 88.196 C 351.996 87.722,351.996 87.600,351.600 87.600 C 351.215 87.600,351.209 87.471,351.573 87.032 C 351.945 86.584,351.893 86.376,351.322 86.044 C 350.635 85.645,350.635 85.624,351.313 85.612 C 352.064 85.599,352.237 77.604,351.486 77.601 C 351.313 77.601,351.365 77.240,351.600 76.800 C 351.877 76.282,351.886 76.000,351.627 76.000 C 351.406 76.000,351.322 75.748,351.440 75.440 C 351.558 75.133,351.459 74.760,351.221 74.613 C 350.982 74.465,350.881 74.193,350.995 74.007 C 351.235 73.620,350.420 73.685,349.745 74.107 C 349.480 74.273,349.208 74.074,349.091 73.626 C 348.931 73.013,349.100 72.866,349.946 72.881 C 352.049 72.920,352.220 72.830,351.282 72.173 C 350.389 71.547,350.431 70.532,351.328 71.070 C 351.658 71.268,351.651 71.169,351.303 70.740 C 351.030 70.403,350.888 70.046,350.986 69.947 C 351.085 69.848,350.768 69.740,350.283 69.707 C 349.423 69.648,349.420 69.661,350.176 70.223 C 350.604 70.540,350.829 70.823,350.676 70.850 C 349.144 71.127,348.297 71.688,348.866 72.050 C 349.188 72.253,349.221 72.390,348.949 72.394 C 348.701 72.397,348.265 72.120,347.981 71.777 C 347.697 71.435,347.630 71.186,347.832 71.225 C 348.727 71.395,349.040 71.134,349.040 70.217 C 349.040 69.461,348.921 69.333,348.524 69.663 C 348.241 69.898,348.106 70.248,348.225 70.441 C 348.344 70.633,348.174 70.688,347.846 70.562 C 347.518 70.437,347.341 70.097,347.453 69.807 C 347.564 69.518,347.462 69.162,347.227 69.017 C 346.992 68.872,346.803 68.538,346.806 68.276 C 346.810 67.990,346.967 68.039,347.200 68.400 C 347.531 68.913,347.589 68.898,347.594 68.300 C 347.597 67.915,347.426 67.600,347.213 67.600 C 346.999 67.600,346.940 67.300,347.081 66.934 C 347.264 66.456,347.190 66.359,346.816 66.590 C 346.465 66.807,346.362 66.731,346.498 66.356 C 346.609 66.050,346.948 65.860,347.250 65.933 C 347.553 66.007,347.667 65.933,347.503 65.770 C 347.340 65.607,347.407 65.232,347.652 64.937 C 348.109 64.386,347.723 64.206,346.458 64.380 C 346.159 64.421,346.002 64.217,346.108 63.927 C 346.213 63.637,346.496 63.443,346.736 63.495 C 346.982 63.549,347.065 63.313,346.926 62.951 C 346.703 62.370,346.648 62.371,346.316 62.965 C 346.105 63.342,345.750 63.489,345.475 63.315 C 345.214 63.148,344.820 63.009,344.600 63.006 C 344.082 62.998,344.042 61.946,344.535 61.287 C 344.841 60.879,344.698 60.859,343.834 61.187 C 342.481 61.701,342.289 61.703,342.600 61.200 C 342.736 60.980,342.522 60.797,342.124 60.794 C 341.510 60.789,341.491 60.729,342.000 60.400 C 342.330 60.187,342.443 60.009,342.251 60.006 C 342.059 60.003,342.130 59.726,342.408 59.391 C 342.827 58.886,342.808 58.822,342.297 59.018 C 341.958 59.148,341.545 59.034,341.379 58.765 C 341.196 58.470,341.243 58.379,341.496 58.536 C 341.727 58.679,342.013 58.544,342.130 58.237 C 342.248 57.930,342.132 57.711,341.872 57.751 C 341.076 57.872,340.376 58.437,340.591 58.786 C 340.704 58.967,340.544 59.213,340.237 59.330 C 339.585 59.580,339.620 58.740,340.295 57.927 C 340.590 57.571,340.622 57.164,340.383 56.787 C 340.070 56.291,340.011 56.305,340.006 56.876 C 340.003 57.248,339.775 57.682,339.500 57.841 C 339.225 57.999,339.133 57.981,339.297 57.801 C 339.651 57.410,338.891 56.397,338.251 56.406 C 337.990 56.410,338.033 56.560,338.351 56.761 C 338.654 56.953,338.777 57.314,338.624 57.562 C 338.196 58.254,337.547 57.637,337.681 56.665 C 337.755 56.130,337.605 55.840,337.288 55.904 C 336.932 55.976,336.986 55.672,337.467 54.904 C 337.847 54.297,338.002 53.935,337.811 54.101 C 337.621 54.266,337.104 54.086,336.664 53.701 C 336.070 53.182,335.940 53.156,336.161 53.600 C 336.325 53.930,336.176 53.851,335.830 53.424 C 335.245 52.703,335.029 52.824,335.158 53.800 C 335.188 54.020,334.964 53.885,334.662 53.500 C 333.936 52.577,333.600 52.616,333.600 53.624 C 333.600 54.077,333.428 54.341,333.217 54.211 C 333.007 54.081,332.948 53.681,333.085 53.322 C 333.253 52.885,333.181 52.765,332.868 52.958 C 332.603 53.122,332.394 53.020,332.387 52.724 C 332.379 52.378,332.193 52.440,331.839 52.906 C 331.331 53.575,331.254 53.569,330.352 52.783 C 329.464 52.011,329.459 51.983,330.274 52.377 C 331.493 52.967,331.785 52.905,331.185 52.182 C 330.839 51.765,330.313 51.643,329.567 51.807 C 328.608 52.018,328.489 51.944,328.670 51.253 C 328.904 50.359,329.833 49.863,330.536 50.257 C 330.870 50.445,330.880 50.386,330.571 50.050 C 330.245 49.694,329.789 49.729,328.671 50.196 C 327.862 50.534,327.200 50.642,327.200 50.435 C 327.200 50.228,327.515 49.976,327.900 49.876 C 328.452 49.731,328.419 49.683,327.743 49.646 C 327.271 49.621,326.797 49.368,326.688 49.085 C 326.579 48.801,325.812 48.524,324.982 48.468 C 323.641 48.378,323.533 48.437,324.005 49.006 C 324.814 49.980,323.630 49.617,322.683 48.600 C 322.274 48.160,322.053 48.025,322.193 48.300 C 322.333 48.575,322.257 48.800,322.024 48.800 C 321.791 48.800,321.594 48.575,321.586 48.300 C 321.578 48.025,321.353 48.160,321.086 48.600 C 320.611 49.381,319.553 49.896,319.647 49.300 C 319.839 48.088,319.522 47.862,318.816 48.709 C 318.371 49.241,317.953 49.448,317.805 49.209 C 317.666 48.984,317.698 48.797,317.876 48.794 C 318.282 48.786,317.115 48.014,316.686 48.006 C 316.513 48.003,316.544 48.321,316.754 48.714 C 317.057 49.280,316.983 49.429,316.398 49.429 C 315.991 49.429,315.746 49.287,315.853 49.114 C 315.960 48.941,315.857 48.800,315.624 48.799 C 224.895 48.652,84.580 48.890,84.016 49.192 C 83.385 49.529,83.311 49.461,83.504 48.726 C 83.685 48.031,83.594 47.917,83.032 48.133 C 82.648 48.280,82.249 48.400,82.144 48.400 C 82.039 48.400,82.056 48.568,82.183 48.772 C 82.309 48.977,82.202 49.275,81.945 49.434 C 81.669 49.605,81.583 49.551,81.736 49.304 C 81.879 49.073,81.717 48.777,81.377 48.646 C 81.023 48.511,80.863 48.578,81.003 48.805 C 81.137 49.022,81.066 49.200,80.843 49.200 C 80.621 49.200,80.272 48.901,80.068 48.535 C 79.733 47.937,79.670 47.950,79.442 48.668 C 79.302 49.107,78.929 49.467,78.612 49.467 C 78.295 49.467,78.105 49.353,78.191 49.214 C 78.277 49.075,78.189 48.705,77.995 48.392 C 77.701 47.917,77.599 47.936,77.379 48.511 C 77.233 48.890,76.853 49.200,76.534 49.200 C 76.214 49.200,76.052 49.040,76.172 48.845 C 76.293 48.649,75.854 48.411,75.196 48.314 C 74.339 48.188,74.000 48.302,74.000 48.716 M61.856 53.878 C 61.405 54.328,61.581 54.800,62.200 54.800 C 62.530 54.800,62.800 54.631,62.800 54.424 C 62.800 53.919,62.175 53.558,61.856 53.878 M337.000 54.800 C 337.136 55.020,336.977 55.200,336.647 55.200 C 336.317 55.200,335.936 55.020,335.800 54.800 C 335.664 54.580,335.823 54.400,336.153 54.400 C 336.483 54.400,336.864 54.580,337.000 54.800 M61.953 55.500 C 61.927 55.665,61.925 55.931,61.950 56.091 C 61.974 56.251,61.455 56.661,60.797 57.002 C 60.139 57.342,59.600 57.712,59.600 57.824 C 59.600 57.936,59.960 57.835,60.400 57.600 C 60.840 57.365,61.205 57.313,61.212 57.486 C 61.229 57.912,62.149 56.327,62.249 55.700 C 62.293 55.425,62.255 55.200,62.165 55.200 C 62.074 55.200,61.979 55.335,61.953 55.500 M57.389 57.618 C 56.947 58.333,58.014 59.286,58.658 58.752 C 59.075 58.405,59.099 58.161,58.756 57.747 C 58.214 57.093,57.741 57.049,57.389 57.618 M56.993 60.813 C 56.648 61.480,56.206 61.927,56.011 61.807 C 55.815 61.686,55.552 61.754,55.426 61.958 C 55.299 62.163,55.422 62.294,55.698 62.249 C 56.327 62.149,57.913 61.229,57.486 61.212 C 57.313 61.205,57.365 60.840,57.600 60.400 C 57.835 59.960,57.936 59.600,57.824 59.600 C 57.712 59.600,57.338 60.146,56.993 60.813 M53.878 61.856 C 53.558 62.175,53.919 62.800,54.424 62.800 C 54.631 62.800,54.800 62.530,54.800 62.200 C 54.800 61.581,54.328 61.405,53.878 61.856 M50.451 92.677 C 50.753 93.049,50.790 93.228,50.534 93.074 C 50.278 92.921,49.995 93.016,49.904 93.287 C 49.814 93.558,49.636 93.379,49.508 92.890 C 49.231 91.833,49.684 91.731,50.451 92.677 M53.621 102.575 C 53.327 102.929,53.202 103.335,53.343 103.476 C 53.484 103.618,53.600 103.513,53.600 103.243 C 53.600 102.973,53.789 102.869,54.019 103.012 C 54.310 103.191,54.304 103.434,54.000 103.800 C 53.694 104.168,53.689 104.408,53.983 104.590 C 54.585 104.961,54.890 103.912,54.493 102.839 C 54.189 102.018,54.104 101.992,53.621 102.575 M341.542 107.913 C 341.464 108.112,340.873 108.529,340.230 108.838 C 339.586 109.147,338.987 109.670,338.899 110.000 C 338.768 110.493,338.808 110.502,339.125 110.049 C 339.348 109.729,339.723 109.629,340.017 109.811 C 340.347 110.014,340.424 109.962,340.238 109.662 C 340.081 109.408,340.143 109.200,340.376 109.200 C 340.609 109.200,340.935 109.187,341.100 109.172 C 341.502 109.134,342.125 107.991,341.878 107.745 C 341.771 107.638,341.620 107.713,341.542 107.913 M61.072 109.462 C 60.955 109.578,60.532 109.463,60.130 109.206 C 59.480 108.791,59.477 108.764,60.100 108.957 C 60.496 109.080,60.814 108.963,60.832 108.687 C 60.854 108.343,60.925 108.354,61.073 108.725 C 61.189 109.014,61.188 109.345,61.072 109.462 M64.367 111.454 C 64.458 111.534,64.083 111.600,63.533 111.600 C 62.928 111.600,62.533 111.372,62.533 111.022 C 62.533 110.498,63.547 110.737,64.367 111.454 M328.000 116.267 C 328.000 116.560,328.161 116.800,328.357 116.800 C 328.554 116.800,328.807 116.560,328.919 116.267 C 329.032 115.973,328.871 115.733,328.562 115.733 C 328.253 115.733,328.000 115.973,328.000 116.267 M73.008 165.700 C 73.159 166.541,73.134 166.552,72.623 165.876 C 72.316 165.470,71.971 165.323,71.836 165.542 C 71.703 165.756,71.787 165.996,72.022 166.074 C 72.683 166.294,71.745 168.400,70.986 168.400 C 70.638 168.400,70.442 168.544,70.550 168.719 C 70.658 168.895,70.562 169.300,70.336 169.619 C 70.001 170.093,69.966 170.071,70.150 169.500 C 70.274 169.115,70.201 168.800,69.987 168.800 C 69.774 168.800,69.600 168.609,69.600 168.376 C 69.600 168.143,69.768 168.056,69.972 168.183 C 70.177 168.309,70.460 168.227,70.600 168.000 C 70.740 167.773,70.985 167.667,71.145 167.766 C 71.304 167.864,71.461 167.581,71.495 167.137 C 71.555 166.335,71.550 166.335,70.837 167.157 C 70.442 167.613,70.013 167.879,69.883 167.749 C 69.753 167.620,69.376 168.163,69.044 168.957 C 68.712 169.751,68.331 170.400,68.197 170.400 C 68.063 170.400,68.052 170.239,68.174 170.042 C 68.296 169.845,68.126 169.581,67.798 169.454 C 67.469 169.328,67.200 169.401,67.200 169.616 C 67.200 169.833,66.840 169.784,66.388 169.503 C 65.716 169.087,65.510 169.104,65.194 169.600 C 64.984 169.930,64.807 170.020,64.800 169.800 C 64.793 169.580,64.624 169.658,64.424 169.974 C 64.132 170.437,63.944 170.452,63.462 170.051 C 62.957 169.632,62.897 169.683,63.078 170.377 C 63.217 170.910,63.101 171.202,62.747 171.206 C 62.320 171.211,62.332 171.297,62.800 171.600 C 63.200 171.858,63.233 171.990,62.900 171.994 C 62.625 171.997,62.400 172.150,62.400 172.333 C 62.400 172.517,62.670 172.667,63.000 172.667 C 63.589 172.667,63.759 172.296,63.630 171.300 C 63.556 170.730,64.639 170.615,64.974 171.158 C 65.096 171.355,64.926 171.619,64.598 171.746 C 64.269 171.872,64.000 172.236,64.000 172.555 C 64.000 172.970,63.578 173.116,62.521 173.068 C 61.172 173.006,61.039 173.094,61.021 174.067 C 61.009 174.653,60.836 175.283,60.636 175.467 C 60.424 175.660,60.392 175.590,60.559 175.300 C 60.899 174.711,60.162 174.614,59.800 175.200 C 59.343 175.939,58.873 175.609,59.087 174.700 C 59.273 173.916,59.229 173.878,58.750 174.400 C 58.447 174.730,57.930 175.236,57.600 175.524 C 57.074 175.983,57.082 176.016,57.669 175.793 C 58.110 175.625,58.489 175.819,58.780 176.363 C 59.188 177.125,59.147 177.160,58.240 176.815 C 57.288 176.453,57.264 176.486,57.491 177.883 C 57.654 178.887,57.590 179.241,57.280 179.049 C 57.035 178.898,56.931 178.465,57.048 178.087 C 57.243 177.457,57.223 177.458,56.810 178.100 C 56.563 178.485,56.089 178.800,55.757 178.800 C 55.424 178.800,55.256 178.968,55.383 179.172 C 55.509 179.377,55.427 179.660,55.200 179.800 C 54.973 179.940,54.864 180.180,54.958 180.332 C 55.052 180.484,54.896 180.927,54.612 181.316 C 54.153 181.944,54.067 181.952,53.852 181.391 C 53.718 181.043,53.753 180.847,53.928 180.956 C 54.104 181.064,54.432 180.460,54.658 179.614 C 54.981 178.404,54.960 178.117,54.560 178.271 C 54.280 178.378,54.160 178.751,54.293 179.099 C 54.454 179.517,54.378 179.633,54.068 179.442 C 53.430 179.048,52.717 179.544,53.082 180.128 C 53.591 180.942,53.568 181.710,53.011 182.506 C 52.558 183.153,52.563 183.492,53.042 184.640 C 53.356 185.390,53.475 185.982,53.306 185.955 C 52.569 185.836,52.241 186.038,52.700 186.330 C 53.089 186.577,53.060 186.819,52.570 187.424 C 52.224 187.851,52.047 187.987,52.177 187.728 C 52.307 187.468,52.235 187.145,52.018 187.011 C 51.549 186.721,51.010 188.568,51.386 189.177 C 51.530 189.410,51.457 189.600,51.224 189.600 C 50.991 189.600,50.800 189.240,50.800 188.800 C 50.800 188.360,50.637 188.000,50.437 188.000 C 50.238 188.000,50.153 188.405,50.249 188.900 C 50.408 189.723,50.381 189.714,49.942 188.800 C 49.461 187.800,49.461 187.800,49.303 188.700 C 49.216 189.195,48.885 189.600,48.569 189.600 C 48.100 189.600,48.083 189.743,48.477 190.374 C 48.743 190.800,49.122 191.048,49.320 190.926 C 49.518 190.804,49.483 191.071,49.243 191.519 C 48.915 192.132,48.930 192.385,49.303 192.536 C 49.576 192.647,49.350 192.754,48.800 192.775 C 48.232 192.796,47.990 192.939,48.240 193.106 C 49.071 193.661,49.647 195.114,49.013 195.054 C 48.702 195.024,48.436 195.180,48.423 195.400 C 48.411 195.620,48.580 195.800,48.800 195.800 C 49.384 195.800,49.295 196.497,48.607 197.300 C 48.064 197.935,48.086 198.000,48.851 198.000 C 49.529 198.000,49.646 198.175,49.452 198.900 C 49.319 199.395,49.208 200.385,49.205 201.100 C 49.202 201.848,49.010 202.358,48.753 202.300 C 47.895 202.108,48.072 203.525,48.941 203.800 C 49.794 204.069,49.794 204.073,48.862 204.339 L 47.924 204.607 48.762 205.365 C 49.223 205.783,49.600 206.310,49.600 206.538 C 49.600 206.766,49.339 206.604,49.020 206.176 C 48.460 205.427,48.448 205.431,48.667 206.300 C 48.791 206.795,49.056 207.200,49.256 207.200 C 49.455 207.200,49.324 207.650,48.963 208.200 C 48.603 208.750,48.495 209.200,48.725 209.200 C 48.954 209.200,49.200 208.946,49.271 208.637 C 49.363 208.236,49.603 208.346,50.102 209.014 C 50.779 209.923,50.776 209.950,50.010 209.802 C 49.574 209.718,49.095 209.846,48.947 210.086 C 48.794 210.333,48.860 210.410,49.096 210.264 C 49.549 209.984,50.000 210.834,50.000 211.966 C 50.000 212.351,50.254 212.667,50.564 212.667 C 50.875 212.667,51.071 212.368,51.000 212.000 C 50.928 211.625,51.126 211.333,51.453 211.333 C 51.773 211.333,51.951 211.551,51.848 211.818 C 51.746 212.084,51.873 212.531,52.131 212.810 C 52.497 213.206,52.475 213.246,52.032 212.993 C 51.604 212.749,51.530 212.841,51.732 213.367 C 51.879 213.751,52.000 214.135,52.000 214.220 C 52.000 214.305,52.268 214.272,52.597 214.146 C 53.350 213.857,53.869 215.091,53.253 215.707 C 52.583 216.377,52.703 216.923,53.457 216.634 C 53.955 216.442,54.011 216.504,53.690 216.892 C 53.194 217.490,53.964 218.800,54.811 218.800 C 55.098 218.800,55.215 218.918,55.070 219.063 C 54.925 219.208,55.000 219.559,55.235 219.842 C 55.535 220.204,55.538 220.574,55.244 221.079 C 54.850 221.756,54.822 221.752,54.781 221.000 C 54.755 220.538,54.649 220.418,54.530 220.717 C 54.389 221.066,54.169 221.106,53.848 220.840 C 53.536 220.581,53.171 220.581,52.787 220.840 C 52.275 221.183,52.277 221.222,52.800 221.147 C 53.501 221.047,55.670 222.000,56.088 222.592 C 56.280 222.864,56.635 222.840,57.154 222.518 C 57.790 222.124,58.029 222.156,58.466 222.695 C 58.847 223.165,58.857 223.268,58.500 223.053 C 58.180 222.861,58.000 222.993,58.000 223.419 C 58.000 223.870,58.210 224.005,58.650 223.836 C 59.227 223.615,59.222 223.707,58.599 224.658 L 57.897 225.729 59.362 224.823 C 60.168 224.325,60.800 224.071,60.766 224.259 C 60.733 224.447,60.740 224.690,60.783 224.800 C 61.085 225.575,61.098 226.643,60.812 227.178 C 60.532 227.702,60.708 227.799,61.835 227.746 C 62.584 227.711,63.095 227.847,62.971 228.048 C 62.846 228.249,62.622 228.339,62.472 228.249 C 62.323 228.158,61.957 228.347,61.660 228.668 C 61.192 229.174,61.324 229.215,62.660 228.981 C 64.142 228.721,64.170 228.736,63.400 229.385 C 62.960 229.756,62.825 229.945,63.100 229.806 C 63.375 229.667,63.603 229.788,63.606 230.076 C 63.611 230.457,63.718 230.436,64.000 230.000 C 64.309 229.522,64.395 229.603,64.424 230.400 C 64.457 231.293,64.519 231.250,65.000 230.000 C 65.297 229.230,65.553 228.909,65.570 229.286 C 65.586 229.663,65.948 230.158,66.374 230.386 C 67.383 230.926,67.715 230.910,67.362 230.338 C 67.172 230.031,67.254 229.986,67.606 230.204 C 67.991 230.442,68.066 230.349,67.881 229.866 C 67.517 228.917,67.887 229.041,68.426 230.048 C 68.782 230.714,68.772 230.830,68.378 230.586 C 68.045 230.381,67.977 230.439,68.175 230.759 C 68.339 231.025,68.680 231.173,68.933 231.089 C 69.615 230.862,70.792 232.561,70.854 233.863 C 70.906 234.944,70.918 234.951,71.088 234.000 C 71.187 233.450,71.453 232.820,71.679 232.600 C 71.959 232.327,71.998 232.503,71.802 233.150 C 71.605 233.801,71.654 234.014,71.957 233.826 C 72.239 233.652,72.409 233.961,72.425 234.676 L 72.451 235.800 72.847 234.806 C 73.065 234.259,73.170 233.530,73.081 233.186 C 72.973 232.773,73.203 232.548,73.759 232.521 C 74.221 232.500,74.375 232.568,74.100 232.674 C 73.572 232.878,73.387 234.431,73.900 234.357 C 74.574 234.260,76.002 234.924,76.028 235.347 C 76.044 235.596,76.211 235.440,76.400 235.000 C 76.589 234.560,76.756 234.447,76.772 234.749 C 76.795 235.191,76.916 235.201,77.400 234.800 C 77.847 234.429,78.000 234.422,78.000 234.775 C 78.000 235.035,78.180 235.136,78.400 235.000 C 78.620 234.864,78.800 234.978,78.800 235.253 C 78.800 235.528,79.064 235.404,79.387 234.976 C 79.749 234.498,79.979 234.401,79.987 234.724 C 79.994 235.012,80.165 235.145,80.366 235.021 C 80.567 234.897,80.823 235.021,80.934 235.298 C 81.046 235.574,81.165 235.350,81.200 234.800 C 81.235 234.250,81.354 234.025,81.465 234.300 C 81.740 234.983,82.215 234.927,83.024 234.119 C 83.666 233.477,83.691 233.483,83.458 234.219 C 83.212 234.993,84.323 235.000,200.205 235.000 C 264.919 235.000,317.200 234.847,317.200 234.657 C 317.200 234.469,317.464 234.416,317.787 234.540 C 318.110 234.664,318.488 234.581,318.627 234.356 C 318.786 234.099,319.132 234.177,319.565 234.568 C 320.112 235.063,320.357 235.089,320.775 234.695 C 321.192 234.302,321.338 234.303,321.483 234.700 C 321.807 235.583,322.462 235.233,322.231 234.300 C 322.108 233.805,322.111 233.626,322.238 233.902 C 322.365 234.179,322.627 234.307,322.821 234.187 C 323.015 234.067,323.397 234.327,323.670 234.764 C 324.040 235.355,324.300 235.449,324.684 235.131 C 325.324 234.599,325.370 233.847,324.738 234.238 C 324.471 234.403,324.384 234.349,324.532 234.110 C 325.140 233.127,326.274 233.277,326.076 234.314 C 325.953 234.958,326.036 235.225,326.308 235.057 C 326.541 234.913,326.823 235.021,326.934 235.298 C 327.129 235.780,327.357 234.300,327.237 233.330 C 327.205 233.072,327.394 232.727,327.657 232.565 C 327.973 232.369,328.058 232.472,327.906 232.868 C 327.769 233.225,327.904 233.467,328.240 233.467 C 328.551 233.467,328.766 233.272,328.719 233.033 C 328.556 232.202,329.219 230.400,329.688 230.400 C 330.047 230.400,330.045 230.515,329.680 230.880 C 329.133 231.427,329.035 233.051,329.530 233.357 C 329.711 233.469,329.846 233.164,329.830 232.680 C 329.813 232.196,329.993 231.834,330.229 231.876 C 330.465 231.918,330.645 231.564,330.629 231.089 C 330.612 230.571,330.881 230.168,331.300 230.083 C 331.761 229.990,332.002 230.190,332.006 230.671 C 332.011 231.223,332.094 231.271,332.351 230.866 C 332.537 230.572,332.800 230.331,332.936 230.331 C 333.680 230.328,334.766 229.869,334.613 229.621 C 334.515 229.463,334.694 229.333,335.011 229.333 C 335.446 229.333,335.479 229.464,335.145 229.867 C 334.901 230.160,334.454 230.400,334.151 230.400 C 333.848 230.400,333.600 230.580,333.600 230.800 C 333.600 231.330,334.283 231.312,334.617 230.773 C 334.762 230.538,335.142 230.446,335.461 230.568 C 335.780 230.691,335.944 230.633,335.825 230.441 C 335.519 229.946,336.674 229.075,337.203 229.402 C 337.491 229.580,337.600 229.282,337.521 228.536 C 337.415 227.538,337.530 227.402,338.470 227.413 C 339.059 227.421,339.443 227.269,339.323 227.076 C 339.204 226.883,338.673 226.807,338.144 226.909 C 337.614 227.010,337.097 226.956,336.994 226.790 C 336.891 226.623,337.432 226.414,338.197 226.324 C 338.962 226.235,339.677 226.351,339.787 226.581 C 339.896 226.811,339.939 226.640,339.881 226.200 C 339.769 225.340,341.447 223.724,342.260 223.911 C 342.930 224.065,343.314 223.318,342.745 222.966 C 342.433 222.773,342.384 222.851,342.600 223.200 C 342.816 223.549,342.767 223.627,342.455 223.434 C 342.198 223.275,342.092 222.974,342.221 222.766 C 342.350 222.557,342.602 222.478,342.782 222.589 C 342.962 222.700,343.355 222.489,343.655 222.119 C 343.955 221.749,343.994 221.570,343.742 221.721 C 343.490 221.872,343.187 221.744,343.069 221.437 C 342.757 220.621,343.232 220.330,343.940 220.903 C 344.429 221.300,344.493 221.299,344.253 220.900 C 344.088 220.625,344.143 220.400,344.376 220.400 C 344.609 220.400,344.800 220.542,344.800 220.715 C 344.800 220.888,345.174 221.058,345.630 221.092 C 346.299 221.143,346.370 221.046,345.996 220.595 C 345.740 220.287,345.647 219.847,345.789 219.618 C 345.931 219.388,345.857 219.200,345.624 219.200 C 345.391 219.200,345.200 218.998,345.200 218.751 C 345.200 218.433,345.368 218.441,345.776 218.780 C 346.093 219.043,346.244 219.540,346.112 219.884 C 345.958 220.288,346.057 220.448,346.394 220.335 C 346.680 220.240,346.967 219.672,347.031 219.074 C 347.095 218.475,347.005 218.073,346.831 218.181 C 346.658 218.288,346.604 217.915,346.711 217.351 C 346.855 216.602,346.999 216.471,347.248 216.863 C 347.724 217.615,347.701 216.717,347.210 215.426 C 346.864 214.516,346.920 214.399,347.710 214.394 C 348.396 214.389,348.469 214.305,348.028 214.026 C 347.277 213.550,347.129 212.460,347.830 212.563 C 348.131 212.607,348.517 212.798,348.688 212.986 C 348.860 213.174,348.787 213.206,348.528 213.058 C 348.268 212.909,347.942 212.970,347.804 213.193 C 347.666 213.417,347.908 213.600,348.343 213.600 C 348.778 213.600,349.230 213.825,349.348 214.100 C 349.466 214.375,349.493 214.105,349.408 213.500 C 349.269 212.514,349.527 212.225,350.446 212.335 C 350.943 212.394,350.582 210.582,349.981 210.000 C 349.641 209.670,349.559 209.527,349.800 209.681 C 351.241 210.608,352.831 208.147,351.442 207.140 C 351.245 206.998,351.227 206.548,351.402 206.140 C 351.893 204.999,351.961 204.400,351.600 204.400 C 351.419 204.400,351.319 204.085,351.379 203.700 C 351.438 203.315,351.287 202.868,351.043 202.706 C 350.768 202.524,350.865 202.410,351.300 202.406 C 351.888 202.401,352.000 202.017,352.000 200.000 C 352.000 198.492,351.833 197.600,351.551 197.600 C 351.259 197.600,351.293 197.365,351.651 196.925 C 352.138 196.326,352.110 196.281,351.400 196.526 C 350.612 196.798,350.612 196.793,351.376 196.201 C 351.853 195.832,351.950 195.600,351.627 195.600 C 351.202 195.600,351.198 195.484,351.608 194.991 C 352.028 194.485,352.007 194.422,351.487 194.622 C 350.858 194.863,350.734 193.933,351.318 193.348 C 351.469 193.197,351.370 192.798,351.097 192.462 C 350.680 191.949,350.713 191.893,351.300 192.113 C 351.685 192.257,352.000 192.216,352.000 192.021 C 352.000 191.826,351.777 191.592,351.505 191.502 C 351.111 191.370,351.112 191.111,351.508 190.243 C 351.782 189.641,351.825 189.261,351.603 189.398 C 351.381 189.535,351.197 189.412,351.194 189.124 C 351.189 188.743,351.082 188.764,350.800 189.200 C 350.258 190.038,350.306 190.501,350.900 190.159 C 351.175 190.001,351.260 190.026,351.088 190.214 C 350.394 190.977,349.592 190.762,350.036 189.933 C 350.515 189.038,350.261 188.000,349.564 188.000 C 349.232 188.000,349.223 188.145,349.531 188.516 C 349.854 188.906,349.774 189.047,349.206 189.090 C 348.792 189.121,348.222 188.843,347.940 188.473 C 347.657 188.103,347.586 187.936,347.781 188.101 C 347.976 188.267,348.561 188.125,349.079 187.785 C 349.598 187.445,350.195 187.274,350.407 187.404 C 350.621 187.536,350.685 187.367,350.553 187.021 C 350.422 186.679,350.143 186.400,349.934 186.400 C 349.724 186.400,349.681 186.192,349.838 185.938 C 350.011 185.659,349.948 185.585,349.679 185.751 C 349.435 185.902,349.327 186.266,349.440 186.560 C 349.906 187.776,348.115 187.503,347.389 186.248 L 346.667 185.000 347.494 185.726 C 348.112 186.269,348.397 186.329,348.622 185.964 C 348.815 185.653,348.757 185.580,348.462 185.762 C 348.202 185.922,348.000 185.817,348.000 185.520 C 348.000 184.951,346.415 183.768,345.864 183.927 C 345.680 183.980,345.917 183.478,346.392 182.812 C 346.866 182.145,347.467 181.597,347.727 181.594 C 348.015 181.590,347.973 181.444,347.619 181.220 C 347.300 181.018,346.850 180.965,346.619 181.103 C 346.389 181.241,346.435 181.063,346.723 180.708 C 347.175 180.151,347.139 180.091,346.464 180.267 C 345.433 180.537,343.891 179.704,344.266 179.080 C 344.436 178.796,344.276 178.825,343.872 179.153 C 343.264 179.646,343.202 179.604,343.295 178.753 C 343.364 178.129,343.194 177.800,342.804 177.800 C 342.122 177.800,339.409 175.293,339.382 174.636 C 339.372 174.396,339.143 174.246,338.874 174.303 C 338.540 174.373,338.464 174.086,338.635 173.403 C 338.796 172.761,338.718 172.400,338.420 172.400 C 338.163 172.400,338.069 172.625,338.211 172.900 C 338.353 173.175,338.131 172.986,337.718 172.480 C 337.183 171.825,336.742 171.642,336.184 171.844 C 335.199 172.200,335.500 171.865,336.748 171.214 C 337.270 170.943,337.597 170.881,337.476 171.077 C 337.095 171.693,338.721 171.577,339.241 170.951 C 339.641 170.469,339.627 170.378,339.168 170.477 C 338.801 170.557,338.639 170.317,338.710 169.800 C 338.811 169.066,338.784 169.058,338.388 169.703 C 338.151 170.090,338.072 170.630,338.213 170.903 C 338.354 171.176,338.113 170.962,337.677 170.426 C 337.241 169.890,336.371 169.385,335.742 169.303 C 334.648 169.160,334.633 169.179,335.400 169.749 C 335.840 170.076,336.260 170.176,336.334 169.970 C 336.408 169.764,336.633 169.697,336.834 169.821 C 337.508 170.238,337.209 170.640,336.226 170.640 C 335.690 170.640,335.353 170.477,335.476 170.277 C 335.604 170.069,335.180 170.029,334.484 170.182 C 333.547 170.387,333.175 170.284,332.866 169.733 C 332.484 169.049,332.427 169.052,331.616 169.786 C 330.774 170.547,330.763 170.546,330.537 169.682 C 330.412 169.202,330.150 168.908,329.955 169.028 C 329.760 169.149,329.600 169.101,329.600 168.921 C 329.600 168.742,329.070 168.361,328.422 168.074 C 327.715 167.761,327.326 167.338,327.449 167.017 C 327.562 166.722,327.462 166.362,327.227 166.217 C 326.992 166.072,326.800 166.143,326.800 166.376 C 326.800 166.609,326.508 166.800,326.151 166.800 C 325.666 166.800,325.610 166.669,325.931 166.284 C 326.248 165.901,326.168 165.647,325.621 165.306 C 325.014 164.927,324.848 164.972,324.696 165.555 C 324.593 165.947,324.215 166.267,323.855 166.267 C 322.984 166.267,323.016 165.707,323.900 165.476 C 324.365 165.354,324.258 165.277,323.580 165.246 C 323.019 165.221,322.333 165.425,322.056 165.700 C 321.652 166.101,321.605 166.061,321.819 165.500 C 322.163 164.598,321.646 164.598,320.944 165.500 C 320.425 166.167,320.379 166.167,319.980 165.500 C 319.749 165.115,319.379 164.800,319.157 164.800 C 318.934 164.800,318.854 164.963,318.977 165.163 C 319.100 165.362,318.813 165.424,318.338 165.300 C 317.863 165.176,317.576 165.237,317.699 165.437 C 317.822 165.637,317.504 165.825,316.991 165.856 C 316.347 165.894,316.125 165.740,316.272 165.356 C 316.390 165.050,316.286 164.800,316.043 164.800 C 315.630 164.800,315.429 165.358,315.563 166.130 C 315.594 166.311,315.432 166.344,315.203 166.202 C 314.974 166.061,314.891 165.777,315.017 165.572 C 315.158 165.345,308.131 165.200,296.924 165.200 C 286.846 165.199,234.740 165.154,181.134 165.100 C 109.930 165.027,83.767 165.119,84.035 165.443 C 84.291 165.750,84.048 165.872,83.241 165.843 C 82.602 165.819,82.149 165.685,82.235 165.545 C 82.525 165.073,80.871 164.889,80.417 165.343 C 80.083 165.677,79.869 165.639,79.589 165.197 C 79.302 164.742,79.203 164.886,79.174 165.800 L 79.135 167.000 78.586 165.800 C 78.283 165.140,78.028 164.819,78.018 165.087 C 78.008 165.368,77.728 165.470,77.360 165.329 C 77.007 165.194,76.560 165.335,76.366 165.642 C 76.158 165.971,76.010 166.012,76.006 165.743 C 76.003 165.491,75.721 165.178,75.379 165.047 C 74.958 164.886,74.854 164.968,75.056 165.305 C 75.253 165.633,75.125 165.615,74.677 165.251 C 74.078 164.765,73.997 164.811,73.975 165.651 L 73.949 166.600 73.588 165.700 C 73.389 165.205,73.140 164.800,73.036 164.800 C 72.931 164.800,72.919 165.205,73.008 165.700 M328.170 167.074 C 328.279 167.821,328.799 168.223,328.806 167.567 C 328.811 167.100,328.881 167.106,329.200 167.600 C 329.520 168.095,329.589 168.058,329.594 167.386 C 329.598 166.853,329.340 166.571,328.848 166.571 C 328.434 166.571,328.129 166.798,328.170 167.074 M339.717 174.486 C 339.765 175.132,339.815 175.133,340.584 174.490 C 341.033 174.115,341.457 173.780,341.526 173.745 C 341.595 173.710,341.205 173.708,340.659 173.741 C 339.987 173.781,339.682 174.022,339.717 174.486 M340.649 175.121 C 340.406 175.514,341.804 176.800,342.475 176.800 C 342.638 176.800,342.968 176.395,343.208 175.900 C 343.627 175.036,343.619 175.031,343.022 175.776 C 342.672 176.214,342.400 176.334,342.400 176.053 C 342.400 175.778,342.231 175.657,342.025 175.785 C 341.818 175.912,341.483 175.720,341.280 175.357 C 341.047 174.940,340.814 174.854,340.649 175.121 M345.059 178.189 C 344.826 178.798,345.474 179.459,345.893 179.040 C 346.025 178.908,345.878 178.797,345.567 178.794 C 345.096 178.789,345.092 178.729,345.543 178.444 C 345.876 178.232,345.931 178.005,345.685 177.852 C 345.464 177.716,345.183 177.868,345.059 178.189 M48.977 212.775 C 49.380 213.220,49.552 213.773,49.381 214.075 C 49.155 214.473,49.202 214.490,49.574 214.147 C 50.105 213.658,49.385 212.000,48.642 212.000 C 48.441 212.000,48.592 212.349,48.977 212.775 M342.145 224.711 C 342.292 224.949,342.230 225.258,342.007 225.396 C 341.783 225.534,341.600 225.435,341.600 225.175 C 341.600 224.822,341.447 224.829,341.000 225.200 C 340.670 225.474,340.403 225.901,340.406 226.149 C 340.410 226.410,340.560 226.367,340.761 226.049 C 340.953 225.746,341.290 225.609,341.510 225.744 C 341.730 225.880,342.118 225.739,342.374 225.431 C 342.728 225.005,342.724 224.800,342.358 224.574 C 342.063 224.392,341.981 224.445,342.145 224.711 M58.600 226.000 C 58.457 226.231,58.828 226.397,59.476 226.394 C 60.349 226.389,60.466 226.301,60.000 226.000 C 59.231 225.503,58.907 225.503,58.600 226.000 M73.762 282.248 C 73.123 282.825,72.885 283.202,73.233 283.087 C 73.602 282.964,73.867 283.102,73.867 283.417 C 73.867 283.829,73.681 283.858,73.082 283.537 C 72.496 283.223,72.212 283.254,71.955 283.659 C 71.767 283.956,71.609 284.043,71.606 283.851 C 71.603 283.659,71.358 283.703,71.063 283.948 C 70.768 284.193,70.425 284.292,70.302 284.169 C 70.179 284.046,69.752 284.497,69.353 285.172 C 68.954 285.848,68.296 286.400,67.890 286.400 C 67.435 286.400,67.262 286.223,67.438 285.938 C 67.616 285.650,67.548 285.585,67.255 285.766 C 66.998 285.925,66.914 286.268,67.070 286.528 C 67.286 286.887,67.215 286.889,66.777 286.539 C 66.026 285.939,64.013 285.682,64.118 286.200 C 64.163 286.420,64.735 286.565,65.388 286.522 C 66.257 286.465,66.418 286.544,65.988 286.816 C 65.499 287.125,65.522 287.189,66.124 287.194 C 66.526 287.197,66.732 287.386,66.588 287.619 C 66.408 287.910,66.175 287.911,65.828 287.623 C 65.214 287.114,64.777 287.474,65.072 288.244 C 65.218 288.624,65.092 288.733,64.685 288.577 C 64.353 288.450,63.962 288.538,63.816 288.774 C 63.631 289.074,63.318 289.077,62.770 288.784 C 62.199 288.478,62.017 288.491,62.094 288.833 C 62.152 289.090,61.950 289.391,61.644 289.502 C 61.272 289.637,61.193 289.535,61.406 289.190 C 61.616 288.851,61.565 288.775,61.255 288.966 C 60.998 289.125,60.891 289.423,61.017 289.628 C 61.144 289.832,61.082 290.000,60.880 290.000 C 60.679 290.000,60.533 290.405,60.557 290.900 C 60.581 291.395,60.420 291.805,60.200 291.812 C 59.980 291.818,59.850 291.604,59.912 291.336 C 59.974 291.067,59.679 290.874,59.256 290.906 C 58.536 290.960,58.528 291.026,59.121 291.982 C 59.733 292.967,59.713 292.962,58.503 291.850 L 57.252 290.700 57.926 292.103 C 58.297 292.875,58.763 293.409,58.962 293.291 C 59.161 293.173,59.200 293.276,59.049 293.521 C 58.898 293.765,58.511 293.864,58.189 293.741 C 57.868 293.617,57.704 293.355,57.826 293.158 C 57.948 292.961,57.857 292.800,57.624 292.800 C 56.963 292.800,57.126 293.657,57.892 294.218 C 58.500 294.662,58.450 294.699,57.487 294.514 C 56.669 294.358,56.440 294.444,56.590 294.852 C 56.892 295.674,56.247 296.431,55.176 296.512 C 54.653 296.551,53.737 297.127,53.141 297.792 L 52.057 299.000 52.898 299.900 C 53.597 300.648,53.630 300.800,53.093 300.800 C 52.738 300.800,52.352 300.954,52.236 301.142 C 52.119 301.330,52.514 301.420,53.112 301.341 L 54.200 301.197 53.000 301.780 C 51.983 302.275,52.166 302.640,53.330 302.437 C 53.511 302.406,53.544 302.568,53.402 302.797 C 53.261 303.026,52.949 303.092,52.711 302.945 C 52.452 302.785,52.391 302.862,52.560 303.135 C 53.133 304.063,52.217 304.960,51.464 304.207 C 50.867 303.610,50.800 303.607,50.800 304.181 C 50.800 304.673,50.479 304.784,49.400 304.665 C 48.630 304.580,48.000 304.665,48.000 304.855 C 48.000 305.045,48.270 305.200,48.600 305.200 C 49.329 305.200,49.383 306.047,48.700 306.765 C 48.293 307.192,48.349 307.246,49.000 307.054 C 49.440 306.924,50.070 306.991,50.400 307.203 C 50.995 307.584,50.506 307.755,48.938 307.714 C 48.684 307.707,48.405 308.309,48.318 309.051 C 48.228 309.824,48.340 310.403,48.580 310.406 C 48.811 310.409,48.730 310.587,48.400 310.800 C 47.887 311.131,47.902 311.189,48.500 311.194 C 48.885 311.197,49.200 311.380,49.200 311.600 C 49.200 311.820,48.908 312.000,48.551 312.000 C 48.020 312.000,47.992 312.109,48.400 312.600 C 48.674 312.930,48.741 313.205,48.549 313.212 C 48.357 313.219,48.526 313.414,48.925 313.646 C 49.742 314.121,49.519 318.318,48.646 318.894 C 48.336 319.098,48.356 319.190,48.713 319.194 C 48.995 319.197,49.389 318.795,49.588 318.300 C 49.850 317.648,49.956 317.586,49.975 318.076 C 49.989 318.448,49.808 318.872,49.573 319.017 C 49.338 319.162,49.252 319.558,49.382 319.897 C 49.578 320.408,49.514 320.427,49.009 320.008 C 48.506 319.590,48.400 319.615,48.400 320.151 C 48.400 320.508,48.715 320.806,49.100 320.813 C 49.708 320.825,49.686 320.922,48.934 321.550 C 48.122 322.228,48.111 322.304,48.768 322.777 C 49.152 323.054,49.467 323.530,49.467 323.834 C 49.467 324.258,49.338 324.281,48.917 323.931 C 48.464 323.555,48.384 323.742,48.468 324.982 C 48.524 325.812,48.801 326.579,49.085 326.688 C 49.368 326.797,49.621 327.271,49.646 327.743 C 49.683 328.419,49.731 328.452,49.876 327.900 C 49.976 327.515,50.228 327.200,50.435 327.200 C 50.642 327.200,50.534 327.862,50.196 328.671 C 49.756 329.725,49.704 330.263,50.015 330.571 C 50.324 330.878,50.377 330.815,50.201 330.352 C 50.064 329.992,50.245 329.412,50.606 329.052 C 51.790 327.868,52.437 328.435,51.628 329.948 C 51.351 330.466,51.452 330.765,52.028 331.125 C 52.908 331.674,52.975 331.510,52.377 330.274 C 51.983 329.459,52.011 329.464,52.783 330.352 C 53.569 331.254,53.575 331.331,52.906 331.839 C 52.440 332.193,52.378 332.379,52.724 332.387 C 53.020 332.394,53.122 332.603,52.958 332.868 C 52.765 333.181,52.885 333.253,53.322 333.085 C 53.681 332.948,54.081 333.007,54.211 333.217 C 54.341 333.428,54.077 333.600,53.624 333.600 C 52.616 333.600,52.577 333.936,53.500 334.662 C 53.885 334.964,54.020 335.188,53.800 335.158 C 52.824 335.029,52.703 335.245,53.424 335.830 C 53.851 336.176,53.930 336.325,53.600 336.161 C 53.156 335.940,53.182 336.070,53.701 336.664 C 54.086 337.104,54.266 337.621,54.101 337.811 C 53.935 338.002,54.297 337.847,54.904 337.467 C 55.672 336.986,55.976 336.932,55.904 337.288 C 55.840 337.605,56.130 337.755,56.665 337.681 C 57.637 337.547,58.254 338.196,57.562 338.624 C 57.314 338.777,56.953 338.654,56.761 338.351 C 56.560 338.033,56.410 337.990,56.406 338.251 C 56.397 338.891,57.410 339.651,57.801 339.297 C 57.981 339.133,57.999 339.225,57.841 339.500 C 57.682 339.775,57.248 340.003,56.876 340.006 C 56.305 340.011,56.291 340.070,56.787 340.383 C 57.164 340.622,57.571 340.590,57.927 340.295 C 58.740 339.620,59.580 339.585,59.330 340.237 C 59.213 340.544,58.967 340.704,58.786 340.591 C 58.437 340.376,57.872 341.076,57.751 341.872 C 57.711 342.132,57.930 342.248,58.237 342.130 C 58.544 342.013,58.679 341.727,58.536 341.496 C 58.379 341.243,58.470 341.196,58.765 341.379 C 59.034 341.545,59.148 341.958,59.018 342.297 C 58.822 342.808,58.886 342.827,59.391 342.408 C 59.726 342.130,60.003 342.059,60.006 342.251 C 60.009 342.443,60.187 342.330,60.400 342.000 C 60.729 341.491,60.789 341.510,60.794 342.124 C 60.797 342.522,60.980 342.736,61.200 342.600 C 61.703 342.289,61.701 342.481,61.187 343.834 C 60.859 344.698,60.879 344.841,61.287 344.535 C 61.941 344.045,62.790 344.081,62.834 344.600 C 62.853 344.820,63.043 345.210,63.256 345.468 C 63.520 345.786,63.431 346.055,62.978 346.308 C 62.376 346.645,62.373 346.704,62.951 346.926 C 63.313 347.065,63.549 346.982,63.495 346.736 C 63.443 346.496,63.654 346.208,63.964 346.095 C 64.336 345.960,64.451 346.091,64.301 346.482 C 64.176 346.807,64.235 347.326,64.431 347.636 C 64.724 348.100,64.789 348.083,64.794 347.543 C 64.802 346.659,65.700 346.370,67.147 346.785 C 67.803 346.973,68.472 347.008,68.634 346.863 C 68.796 346.719,68.804 346.816,68.653 347.080 C 68.340 347.625,69.541 348.385,70.290 348.116 C 70.883 347.903,72.158 348.796,72.310 349.531 C 72.377 349.853,72.141 350.005,71.710 349.917 C 71.263 349.825,71.050 349.488,71.136 349.007 C 71.246 348.385,71.165 348.331,70.699 348.718 C 70.384 348.979,69.993 349.060,69.830 348.897 C 69.667 348.733,69.593 348.855,69.667 349.167 C 69.875 350.050,70.970 351.088,71.255 350.671 C 71.618 350.140,72.399 350.719,72.406 351.524 C 72.411 352.046,72.489 352.079,72.750 351.667 C 72.936 351.375,73.028 350.628,72.956 350.008 C 72.846 349.059,72.948 348.914,73.608 349.086 C 74.068 349.207,74.274 349.478,74.107 349.745 C 73.685 350.420,73.620 351.235,74.007 350.995 C 74.193 350.881,74.465 350.982,74.613 351.221 C 74.760 351.459,75.133 351.558,75.440 351.440 C 75.748 351.322,76.000 351.406,76.000 351.627 C 76.000 351.886,76.282 351.877,76.800 351.600 C 77.240 351.365,77.600 351.313,77.600 351.486 C 77.600 351.659,78.232 351.800,79.004 351.800 C 80.077 351.800,80.360 351.658,80.203 351.200 C 80.085 350.855,80.254 350.930,80.599 351.376 C 81.142 352.078,81.200 352.086,81.200 351.453 C 81.200 351.068,81.380 350.864,81.600 351.000 C 81.820 351.136,82.011 351.012,82.025 350.724 C 82.039 350.436,82.221 350.624,82.428 351.143 C 82.752 351.951,82.962 352.037,83.903 351.743 C 84.506 351.554,136.795 351.400,200.100 351.400 C 276.563 351.400,315.202 351.266,315.206 351.000 C 315.210 350.733,315.310 350.733,315.506 351.000 C 315.807 351.409,317.957 351.599,317.924 351.214 C 317.855 350.417,318.080 350.353,318.587 351.024 C 319.011 351.583,319.178 351.639,319.187 351.224 C 319.197 350.797,319.340 350.839,319.739 351.384 C 320.118 351.902,320.364 351.983,320.567 351.654 C 320.725 351.397,321.010 351.283,321.200 351.400 C 321.390 351.517,321.675 351.402,321.834 351.145 C 322.027 350.833,321.949 350.784,321.600 351.000 C 321.251 351.216,321.173 351.167,321.366 350.855 C 321.781 350.183,322.498 350.755,322.226 351.540 C 322.017 352.145,322.040 352.146,322.504 351.553 C 322.931 351.008,323.091 350.993,323.521 351.453 C 324.237 352.220,324.817 352.134,324.555 351.300 C 324.347 350.640,324.368 350.640,324.916 351.306 C 325.456 351.962,325.515 351.927,325.739 350.806 C 325.938 349.809,326.903 348.946,326.753 349.900 C 326.605 350.833,326.850 352.016,327.152 351.830 C 327.345 351.710,327.457 351.067,327.400 350.400 C 327.343 349.733,327.483 349.072,327.710 348.932 C 327.938 348.791,328.005 348.869,327.859 349.104 C 327.714 349.339,327.821 349.623,328.098 349.734 C 328.476 349.887,328.480 349.945,328.113 349.968 C 327.844 349.986,327.729 350.270,327.855 350.600 C 328.133 351.324,328.862 351.404,328.770 350.700 C 328.632 349.640,328.818 349.164,329.262 349.438 C 329.530 349.604,329.616 349.549,329.466 349.307 C 329.149 348.793,329.823 348.234,331.400 347.704 C 332.060 347.482,332.555 347.098,332.500 346.850 C 332.376 346.290,332.635 346.283,333.637 346.820 C 334.085 347.059,334.304 347.447,334.147 347.720 C 333.988 347.998,334.025 348.058,334.236 347.864 C 334.436 347.679,334.600 347.155,334.600 346.699 C 334.600 346.243,334.817 345.797,335.082 345.708 C 335.386 345.605,335.505 345.855,335.403 346.383 C 335.314 346.845,335.412 347.116,335.621 346.987 C 335.829 346.858,336.000 346.954,336.000 347.200 C 336.000 347.446,336.199 347.524,336.443 347.374 C 336.754 347.181,336.733 347.005,336.368 346.780 C 335.949 346.521,335.956 346.335,336.404 345.795 C 336.911 345.184,336.983 345.203,337.287 346.023 C 337.468 346.514,337.718 346.815,337.841 346.692 C 337.964 346.569,337.834 346.048,337.552 345.534 C 337.270 345.020,336.997 344.240,336.945 343.800 C 336.893 343.360,336.944 343.225,337.059 343.500 C 337.173 343.775,337.442 344.000,337.657 344.000 C 337.872 344.000,337.936 343.820,337.800 343.600 C 337.664 343.380,337.814 343.200,338.133 343.200 C 338.555 343.200,338.676 343.581,338.577 344.600 C 338.495 345.444,338.619 346.000,338.887 346.000 C 339.133 346.000,339.215 345.882,339.070 345.737 C 338.925 345.592,338.994 345.248,339.223 344.972 C 339.467 344.679,339.487 344.378,339.273 344.245 C 338.776 343.938,339.163 342.100,339.775 341.865 C 340.045 341.761,340.267 341.921,340.267 342.221 C 340.267 342.520,340.089 342.655,339.872 342.521 C 339.634 342.374,339.605 342.485,339.799 342.799 C 340.056 343.213,340.221 343.186,340.601 342.667 C 340.864 342.307,341.206 342.139,341.361 342.294 C 341.516 342.449,341.512 342.235,341.352 341.818 C 341.112 341.194,341.194 341.112,341.818 341.352 C 342.235 341.512,342.449 341.516,342.294 341.361 C 342.139 341.206,342.307 340.864,342.667 340.601 C 343.186 340.221,343.213 340.056,342.799 339.799 C 342.485 339.605,342.374 339.634,342.521 339.872 C 342.655 340.089,342.520 340.267,342.221 340.267 C 341.921 340.267,341.761 340.045,341.865 339.775 C 342.100 339.163,343.938 338.776,344.245 339.273 C 344.378 339.487,344.679 339.467,344.972 339.223 C 345.248 338.994,345.592 338.925,345.737 339.070 C 345.882 339.215,346.000 339.133,346.000 338.887 C 346.000 338.619,345.444 338.495,344.600 338.577 C 343.581 338.676,343.200 338.555,343.200 338.133 C 343.200 337.814,343.380 337.664,343.600 337.800 C 343.820 337.936,344.000 337.872,344.000 337.657 C 344.000 337.442,343.775 337.173,343.500 337.059 C 343.225 336.944,343.360 336.893,343.800 336.945 C 344.240 336.997,345.020 337.270,345.534 337.552 C 346.048 337.834,346.580 337.953,346.717 337.817 C 346.853 337.680,346.538 337.457,346.015 337.320 L 345.066 337.072 346.233 336.094 C 347.284 335.213,347.311 335.136,346.500 335.321 C 345.205 335.615,345.392 334.928,346.807 334.197 C 347.889 333.637,348.005 332.000,346.962 332.000 C 346.847 332.000,346.880 332.225,347.035 332.500 C 347.251 332.883,347.200 332.891,346.814 332.535 C 346.508 332.253,346.443 331.859,346.649 331.535 C 346.835 331.241,346.991 330.880,346.994 330.733 C 347.009 330.054,347.601 329.958,347.606 330.633 C 347.611 331.232,347.690 331.278,347.966 330.842 C 348.166 330.525,348.606 330.393,348.980 330.537 C 349.344 330.677,349.539 330.625,349.414 330.423 C 349.289 330.221,349.369 329.943,349.591 329.805 C 350.526 329.228,350.809 328.066,350.171 327.428 C 349.600 326.857,349.619 326.800,350.371 326.800 C 350.827 326.800,351.200 326.599,351.200 326.353 C 351.200 326.097,350.789 325.985,350.237 326.091 C 349.570 326.218,349.333 326.118,349.468 325.767 C 349.575 325.487,350.009 325.325,350.432 325.406 C 350.914 325.499,351.200 325.331,351.200 324.953 C 351.200 324.623,351.380 324.464,351.600 324.600 C 352.216 324.981,352.074 324.131,351.410 323.467 C 350.891 322.948,350.894 322.850,351.436 322.642 C 351.774 322.512,351.932 322.213,351.787 321.978 C 351.279 321.156,351.144 319.200,351.596 319.200 C 351.884 319.200,351.998 318.391,351.920 316.900 C 351.854 315.635,351.620 314.630,351.400 314.667 C 350.831 314.762,350.970 312.559,351.580 311.824 C 351.998 311.321,351.985 311.169,351.512 310.988 C 351.194 310.865,350.933 310.520,350.933 310.221 C 350.933 309.921,351.173 309.768,351.467 309.881 C 351.772 309.998,352.000 309.816,352.000 309.455 C 352.000 309.093,351.772 308.913,351.464 309.031 C 351.169 309.144,350.674 308.924,350.364 308.541 C 350.054 308.159,349.989 307.959,350.220 308.097 C 350.451 308.235,350.850 308.011,351.107 307.599 C 351.504 306.964,351.466 306.872,350.853 306.990 C 350.457 307.066,349.877 306.967,349.566 306.770 C 348.985 306.403,349.031 306.371,350.400 306.200 C 350.840 306.145,351.380 306.078,351.600 306.050 C 352.408 305.949,351.971 305.338,351.112 305.368 C 350.086 305.405,349.614 304.091,350.461 303.554 C 350.994 303.216,350.171 303.008,348.921 303.165 C 348.437 303.226,347.531 301.900,347.658 301.316 C 347.805 300.641,347.083 299.600,346.468 299.600 C 345.983 299.600,346.048 299.441,346.730 298.964 C 347.608 298.349,347.274 296.860,346.382 297.411 C 346.202 297.522,345.925 297.403,345.767 297.146 C 345.564 296.817,345.318 296.898,344.939 297.416 C 344.431 298.111,344.400 298.099,344.400 297.210 C 344.400 296.691,344.511 296.378,344.648 296.514 C 344.784 296.650,345.144 296.513,345.448 296.210 C 346.069 295.588,346.194 295.033,345.634 295.379 C 345.433 295.503,345.192 295.469,345.100 295.302 C 345.007 295.136,344.986 295.225,345.053 295.500 C 345.120 295.776,344.811 296.000,344.364 296.000 C 343.853 296.000,343.658 296.171,343.838 296.462 C 344.027 296.767,343.946 296.814,343.601 296.601 C 343.193 296.349,343.240 296.160,343.816 295.739 C 344.359 295.342,344.401 295.198,343.976 295.194 C 343.508 295.189,343.500 295.124,343.934 294.849 C 344.337 294.594,344.257 294.456,343.604 294.285 C 343.072 294.146,342.769 293.779,342.816 293.330 C 342.858 292.928,342.849 292.465,342.796 292.300 C 342.743 292.135,342.678 291.775,342.650 291.500 C 342.623 291.225,342.420 290.997,342.200 290.994 C 341.980 290.991,341.575 290.845,341.300 290.670 C 341.009 290.485,340.800 290.540,340.800 290.800 C 340.800 291.046,340.620 291.136,340.400 291.000 C 340.180 290.864,340.000 290.933,340.000 291.153 C 340.000 291.785,340.713 292.058,340.911 291.502 C 341.010 291.226,341.245 291.145,341.434 291.322 C 341.622 291.499,341.517 291.804,341.200 292.000 C 340.883 292.196,340.763 292.496,340.933 292.667 C 341.104 292.837,341.404 292.717,341.600 292.400 C 341.796 292.083,342.096 291.963,342.267 292.133 C 342.437 292.304,342.349 292.585,342.069 292.757 C 341.672 293.002,341.697 293.182,342.181 293.584 C 342.521 293.867,342.799 294.391,342.797 294.749 C 342.796 295.186,342.556 295.038,342.067 294.297 C 341.667 293.690,341.218 293.315,341.070 293.463 C 340.921 293.612,340.800 293.548,340.800 293.321 C 340.800 293.095,340.355 292.464,339.810 291.920 C 339.177 291.286,338.882 290.615,338.990 290.054 C 339.085 289.557,338.991 289.282,338.773 289.417 C 338.560 289.548,338.491 289.823,338.617 290.028 C 339.038 290.709,337.707 290.412,337.149 289.700 C 336.641 289.052,336.658 289.045,337.375 289.600 C 338.084 290.149,338.126 290.137,337.875 289.467 C 337.724 289.064,337.600 288.479,337.600 288.167 C 337.600 287.855,337.409 287.600,337.176 287.600 C 336.943 287.600,336.888 287.825,337.053 288.100 C 337.278 288.475,337.193 288.470,336.712 288.081 C 336.281 287.731,335.986 287.699,335.812 287.981 C 335.669 288.211,335.349 288.400,335.100 288.400 C 334.851 288.400,334.995 288.146,335.419 287.835 C 335.844 287.525,336.308 287.343,336.450 287.431 C 336.593 287.519,336.907 287.353,337.148 287.062 C 337.495 286.644,337.341 286.533,336.411 286.533 C 335.764 286.533,335.327 286.681,335.438 286.862 C 335.550 287.043,335.362 287.084,335.021 286.953 C 334.679 286.822,334.397 286.509,334.394 286.257 C 334.391 286.006,334.211 286.070,333.994 286.400 C 333.729 286.804,333.502 286.860,333.300 286.571 C 332.813 285.875,331.600 285.562,331.600 286.133 C 331.600 286.412,331.182 286.640,330.671 286.640 C 329.877 286.640,329.748 286.447,329.785 285.320 C 329.809 284.594,329.687 284.000,329.514 284.000 C 329.341 284.000,329.200 284.270,329.200 284.600 C 329.200 285.310,328.567 285.394,328.162 284.738 C 328.005 284.484,328.048 284.383,328.258 284.512 C 328.468 284.642,328.847 284.416,329.101 284.010 C 329.470 283.420,329.439 283.224,328.948 283.036 C 327.863 282.619,327.475 282.768,328.000 283.400 C 328.314 283.778,328.341 284.000,328.073 284.000 C 327.839 284.000,327.526 283.804,327.378 283.565 C 327.231 283.326,326.725 283.229,326.255 283.349 C 325.413 283.565,325.414 283.557,326.298 282.884 L 327.196 282.200 325.996 282.236 C 325.336 282.255,324.661 282.419,324.498 282.600 C 324.334 282.780,324.423 282.800,324.695 282.643 C 325.032 282.450,325.112 282.563,324.946 282.996 C 324.661 283.740,324.383 283.570,324.235 282.558 C 324.177 282.165,323.896 281.765,323.609 281.670 C 323.301 281.567,323.203 281.681,323.368 281.948 C 323.540 282.226,323.342 282.400,322.857 282.400 C 322.422 282.400,321.988 282.175,321.891 281.900 C 321.776 281.571,321.444 281.730,320.922 282.365 C 320.369 283.037,320.038 283.186,319.834 282.855 C 319.663 282.579,319.741 282.426,320.020 282.490 C 320.284 282.551,320.583 282.375,320.683 282.100 C 320.797 281.790,320.641 281.686,320.274 281.827 C 319.948 281.952,319.562 281.862,319.416 281.626 C 319.256 281.366,318.886 281.330,318.476 281.535 C 318.104 281.720,317.130 281.840,316.312 281.801 C 315.076 281.742,314.934 281.810,315.473 282.204 C 315.988 282.581,316.014 282.744,315.599 283.001 C 315.253 283.214,315.173 283.167,315.363 282.860 C 315.579 282.510,287.549 282.422,200.058 282.499 C 117.105 282.571,84.570 282.478,84.828 282.167 C 85.072 281.872,84.810 281.733,84.011 281.733 C 83.364 281.733,82.928 281.883,83.041 282.067 C 83.155 282.250,83.046 282.400,82.800 282.400 C 82.554 282.400,82.481 282.608,82.638 282.862 C 82.815 283.147,82.748 283.215,82.463 283.039 C 82.210 282.883,81.598 282.677,81.103 282.581 C 80.608 282.486,80.142 282.226,80.068 282.004 C 79.875 281.426,79.200 281.504,79.200 282.104 C 79.200 282.387,78.673 282.630,78.000 282.658 C 77.214 282.690,76.800 282.513,76.800 282.146 C 76.800 281.739,76.509 281.658,75.740 281.851 C 74.995 282.038,74.765 281.981,74.964 281.658 C 75.419 280.923,75.009 281.124,73.762 282.248 M70.000 283.000 C 69.722 283.335,69.679 283.600,69.902 283.600 C 70.122 283.600,70.526 283.330,70.800 283.000 C 71.078 282.665,71.121 282.400,70.898 282.400 C 70.678 282.400,70.274 282.670,70.000 283.000 M72.105 285.345 C 71.919 285.641,71.769 285.547,71.676 285.079 C 71.508 284.229,70.400 284.898,70.400 285.849 C 70.400 286.470,69.765 286.591,69.422 286.035 C 69.046 285.427,71.316 283.998,71.894 284.478 C 72.168 284.705,72.262 285.095,72.105 285.345 M63.895 287.077 C 63.507 287.178,63.291 287.424,63.415 287.624 C 63.539 287.824,63.136 287.924,62.520 287.846 C 61.904 287.767,61.670 287.789,62.000 287.895 C 62.330 288.000,62.783 288.234,63.007 288.415 C 63.243 288.605,63.806 288.335,64.349 287.772 C 65.281 286.803,65.232 286.728,63.895 287.077 M54.796 295.005 C 54.516 295.343,54.402 295.735,54.543 295.876 C 54.684 296.018,54.800 295.901,54.800 295.618 C 54.800 295.219,54.928 295.208,55.364 295.570 C 55.698 295.847,56.023 295.886,56.160 295.665 C 56.607 294.941,55.353 294.334,54.796 295.005 M56.000 297.083 C 55.670 297.207,55.175 297.485,54.900 297.703 C 54.550 297.980,54.400 297.930,54.400 297.536 C 54.400 297.204,54.850 296.951,55.500 296.917 C 56.105 296.885,56.330 296.960,56.000 297.083 M53.685 298.075 C 53.319 298.441,53.365 298.719,53.883 299.292 C 54.550 300.029,54.017 300.032,52.674 299.299 C 52.359 299.127,53.499 297.600,53.942 297.600 C 54.062 297.600,53.946 297.814,53.685 298.075 M347.757 302.633 C 348.099 303.524,348.069 303.601,347.467 303.370 C 347.173 303.258,346.933 302.903,346.933 302.583 C 346.933 301.807,347.453 301.839,347.757 302.633 M349.429 304.705 C 349.296 304.838,348.966 304.726,348.697 304.457 C 348.310 304.070,348.333 303.888,348.803 303.594 C 349.410 303.215,349.954 304.180,349.429 304.705 M350.400 304.600 C 350.400 304.930,350.591 305.200,350.824 305.200 C 351.057 305.200,351.145 305.035,351.021 304.834 C 350.897 304.633,351.021 304.377,351.298 304.266 C 351.601 304.144,351.522 304.051,351.100 304.032 C 350.715 304.014,350.400 304.270,350.400 304.600 M349.524 329.447 C 349.168 329.803,348.679 329.973,348.438 329.824 C 347.644 329.333,347.981 328.800,349.086 328.800 C 350.086 328.800,350.121 328.851,349.524 329.447 M55.200 336.647 C 55.200 336.977,55.020 337.136,54.800 337.000 C 54.580 336.864,54.400 336.483,54.400 336.153 C 54.400 335.823,54.580 335.664,54.800 335.800 C 55.020 335.936,55.200 336.317,55.200 336.647 M329.582 348.034 C 329.336 348.493,329.056 348.789,328.958 348.692 C 328.678 348.412,329.246 347.200,329.657 347.200 C 329.861 347.200,329.827 347.575,329.582 348.034 " stroke="none" fill="#fcfcfc" fill-rule="evenodd"></path><path id="path1" d="" stroke="none" fill="#100fcfc" fill-rule="evenodd"></path><path id="path2" d="" stroke="none" fill="#100fcfc" fill-rule="evenodd"></path><path id="path3" d="" stroke="none" fill="#100fcfc" fill-rule="evenodd"></path><path id="path4" d="" stroke="none" fill="#100fcfc" fill-rule="evenodd"></path></g></svg>